<?xml version="1.0" encoding="UTF-8" standalone="no"?>
<svg
   xmlns:dc="http://purl.org/dc/elements/1.1/"
   xmlns:cc="http://creativecommons.org/ns#"
   xmlns:rdf="http://www.w3.org/1999/02/22-rdf-syntax-ns#"
   xmlns:svg="http://www.w3.org/2000/svg"
   xmlns="http://www.w3.org/2000/svg"
   xmlns:xlink="http://www.w3.org/1999/xlink"
   xmlns:sodipodi="http://sodipodi.sourceforge.net/DTD/sodipodi-0.dtd"
   xmlns:inkscape="http://www.inkscape.org/namespaces/inkscape"
   width="256"
   height="256"
   viewBox="0 0 67.733332 67.733335"
   version="1.1"
   id="svg8"
   inkscape:version="1.0 (4035a4fb49, 2020-05-01)"
   sodipodi:docname="pbx-favicon.svg"
   inkscape:export-filename="D:\Users\Donnie\Pictures\Logos\PBX\pbx-fuscia.png"
   inkscape:export-xdpi="96"
   inkscape:export-ydpi="96">
  <defs
     id="defs2">
    <linearGradient
       gradientTransform="translate(2.24e-6)"
       gradientUnits="userSpaceOnUse"
       y2="242.15565"
       x2="5.3896823"
       y1="272.77173"
       x1="55.162109"
       id="linearGradient1181"
       xlink:href="#linearGradient1197"
       inkscape:collect="always" />
    <linearGradient
       inkscape:collect="always"
       id="linearGradient1197">
      <stop
         style="stop-color:#9a97c4;stop-opacity:1"
         offset="0"
         id="stop1193" />
      <stop
         style="stop-color:#5ad0c4;stop-opacity:1"
         offset="1"
         id="stop1195" />
    </linearGradient>
  </defs>
  <sodipodi:namedview
     id="base"
     pagecolor="#151515"
     bordercolor="#666666"
     borderopacity="1.0"
     inkscape:pageopacity="0"
     inkscape:pageshadow="2"
     inkscape:zoom="1.4"
     inkscape:cx="-5.8267059"
     inkscape:cy="247.15273"
     inkscape:document-units="px"
     inkscape:current-layer="layer1"
     showgrid="false"
     inkscape:snap-global="false"
     inkscape:window-width="1920"
     inkscape:window-height="1017"
     inkscape:window-x="3832"
     inkscape:window-y="-8"
     inkscape:window-maximized="1"
     units="px"
     inkscape:document-rotation="0" />
  <metadata
     id="metadata5">
    <rdf:RDF>
      <cc:Work
         rdf:about="">
        <dc:format>image/svg+xml</dc:format>
        <dc:type
           rdf:resource="http://purl.org/dc/dcmitype/StillImage" />
        <dc:title />
      </cc:Work>
    </rdf:RDF>
  </metadata>
  <g
     inkscape:label="Layer 1"
     inkscape:groupmode="layer"
     id="layer1"
     transform="translate(0,-229.26665)">
    <path
       d="m 15.567226,231.80138 h 36.59888 c 7.219998,0 13.032486,5.81249 13.032486,13.03248 v 36.59888 c 0,7.22 -5.812488,13.03249 -13.032486,13.03249 h -36.59888 c -7.2199975,0 -13.0324863,-5.81249 -13.0324863,-13.03249 v -36.59888 c 0,-7.21999 5.8124888,-13.03248 13.0324863,-13.03248 z"
       style="font-variation-settings:'wdth' 100, 'wght' 700;opacity:1;fill:#101010;fill-opacity:1;stroke:#0c0c0c;stroke-width:1.95874;stroke-miterlimit:4;stroke-dasharray:none;stroke-opacity:1;paint-order:markers stroke fill"
       id="rect1199" />
    <path
       d="M 33.866669,263.12914 24.285653,250.91812 H 10.938895 l 9.800223,11.90528 -8.430326,12.05122 h 12.328027 z m 0,0 9.581017,-12.21102 h 13.346752 l -9.800219,11.90528 8.430326,12.05122 H 43.096517 Z m -0.885786,7.69063 v 14.38108 l -2.293536,2.4795 H 18.227886 l 2.169553,-1.67365 v -7.5005 h 6.708369 z m 1.771575,0 v 14.38108 l 2.293536,2.4795 h 12.459459 l -2.169551,-1.67365 v -7.5005 h -6.70837 z m -1.771575,-15.37291 v -14.38107 l -2.293536,-2.4795 H 18.227886 l 2.169553,1.67365 v 7.50049 h 6.708369 z m 1.771575,0 v -14.38107 l 2.293536,-2.4795 h 12.459459 l -2.169551,1.67365 v 7.50049 h -6.70837 z"
       style="fill:url(#linearGradient1181);fill-opacity:1;stroke:none;stroke-width:0.696865px;stroke-linecap:butt;stroke-linejoin:miter;stroke-opacity:1"
       id="path862-9" />
  </g>
</svg>
